<?xml version="1.0" encoding="UTF-8" standalone="no"?>
<!DOCTYPE svg PUBLIC "-//W3C//DTD SVG 1.1//EN"
 "http://www.w3.org/Graphics/SVG/1.1/DTD/svg11.dtd">
<!-- Generated by graphviz version 2.43.0 (0)
 -->
<!-- Title: Call Graph Pages: 1 -->
<svg width="5563pt" height="141pt"
 viewBox="0.00 0.00 5562.50 141.00" xmlns="http://www.w3.org/2000/svg" xmlns:xlink="http://www.w3.org/1999/xlink">
<g id="graph0" class="graph" transform="scale(1 1) rotate(0) translate(4 137)">
<title>Call Graph</title>
<polygon fill="white" stroke="transparent" points="-4,4 -4,-137 5558.5,-137 5558.5,4 -4,4"/>
<text text-anchor="middle" x="2777.25" y="-7.8" font-family="Times,serif" font-size="14.00">Call Graph</text>
<!-- Node0x634dfbc36680 -->
<g id="node1" class="node">
<title>Node0x634dfbc36680</title>
<polygon fill="none" stroke="black" points="1581.5,-59.5 693.5,-59.5 693.5,-23.5 1581.5,-23.5 1581.5,-59.5"/>
<text text-anchor="middle" x="1137.5" y="-37.8" font-family="Times,serif" font-size="14.00">{CallGraphNode ID: 0 {fun: _ZN3std10sys_common9backtrace28__rust_begin_short_backtrace17h8398303cbdb34efdE}}</text>
</g>
<!-- Node0x634dfbc35420 -->
<g id="node2" class="node">
<title>Node0x634dfbc35420</title>
<polygon fill="none" stroke="black" points="2852.5,-132.5 2084.5,-132.5 2084.5,-96.5 2852.5,-96.5 2852.5,-132.5"/>
<text text-anchor="middle" x="2468.5" y="-110.8" font-family="Times,serif" font-size="14.00">{CallGraphNode ID: 1 {fun: _ZN3std2rt10lang_start17h66c386e9799a19d2E}|{&lt;s0&gt;1|&lt;s1&gt;2|&lt;s2&gt;3}}</text>
</g>
<!-- Node0x634dfbc177b0 -->
<g id="node3" class="node">
<title>Node0x634dfbc177b0</title>
<path fill="none" stroke="black" d="M2085.5,-23.5C2085.5,-23.5 2441.5,-23.5 2441.5,-23.5 2447.5,-23.5 2453.5,-29.5 2453.5,-35.5 2453.5,-35.5 2453.5,-47.5 2453.5,-47.5 2453.5,-53.5 2447.5,-59.5 2441.5,-59.5 2441.5,-59.5 2085.5,-59.5 2085.5,-59.5 2079.5,-59.5 2073.5,-53.5 2073.5,-47.5 2073.5,-47.5 2073.5,-35.5 2073.5,-35.5 2073.5,-29.5 2079.5,-23.5 2085.5,-23.5"/>
<text text-anchor="middle" x="2263.5" y="-37.8" font-family="Times,serif" font-size="14.00">CallGraphNode ID: 10 {fun: llvm.lifetime.start.p0}</text>
</g>
<!-- Node0x634dfbc35420&#45;&gt;Node0x634dfbc177b0 -->
<g id="edge1" class="edge">
<title>Node0x634dfbc35420:s0&#45;&gt;Node0x634dfbc177b0</title>
<path fill="none" stroke="black" d="M2419.4,-96.49C2390.32,-86.42 2353.3,-73.6 2322.63,-62.98"/>
<polygon fill="black" stroke="black" points="2323.51,-59.58 2312.91,-59.61 2321.22,-66.19 2323.51,-59.58"/>
</g>
<!-- Node0x634dfbc175b0 -->
<g id="node4" class="node">
<title>Node0x634dfbc175b0</title>
<path fill="none" stroke="black" d="M2484,-23.5C2484,-23.5 3091,-23.5 3091,-23.5 3097,-23.5 3103,-29.5 3103,-35.5 3103,-35.5 3103,-47.5 3103,-47.5 3103,-53.5 3097,-59.5 3091,-59.5 3091,-59.5 2484,-59.5 2484,-59.5 2478,-59.5 2472,-53.5 2472,-47.5 2472,-47.5 2472,-35.5 2472,-35.5 2472,-29.5 2478,-23.5 2484,-23.5"/>
<text text-anchor="middle" x="2787.5" y="-37.8" font-family="Times,serif" font-size="14.00">CallGraphNode ID: 8 {fun: _ZN3std2rt19lang_start_internal17h4308cf6398dd4975E}</text>
</g>
<!-- Node0x634dfbc35420&#45;&gt;Node0x634dfbc175b0 -->
<g id="edge2" class="edge">
<title>Node0x634dfbc35420:s1&#45;&gt;Node0x634dfbc175b0</title>
<path fill="none" stroke="black" d="M2544.91,-96.49C2591.9,-86.03 2652.24,-72.61 2700.98,-61.76"/>
<polygon fill="black" stroke="black" points="2701.89,-65.14 2710.89,-59.55 2700.36,-58.31 2701.89,-65.14"/>
</g>
<!-- Node0x634dfbc176b0 -->
<g id="node5" class="node">
<title>Node0x634dfbc176b0</title>
<path fill="none" stroke="black" d="M3133,-23.5C3133,-23.5 3472,-23.5 3472,-23.5 3478,-23.5 3484,-29.5 3484,-35.5 3484,-35.5 3484,-47.5 3484,-47.5 3484,-53.5 3478,-59.5 3472,-59.5 3472,-59.5 3133,-59.5 3133,-59.5 3127,-59.5 3121,-53.5 3121,-47.5 3121,-47.5 3121,-35.5 3121,-35.5 3121,-29.5 3127,-23.5 3133,-23.5"/>
<text text-anchor="middle" x="3302.5" y="-37.8" font-family="Times,serif" font-size="14.00">CallGraphNode ID: 9 {fun: llvm.lifetime.end.p0}</text>
</g>
<!-- Node0x634dfbc35420&#45;&gt;Node0x634dfbc176b0 -->
<g id="edge3" class="edge">
<title>Node0x634dfbc35420:s2&#45;&gt;Node0x634dfbc176b0</title>
<path fill="none" stroke="black" d="M2679.18,-96.48C2802.16,-86.42 2960.61,-73.27 3110.65,-60.16"/>
<polygon fill="black" stroke="black" points="3111.32,-63.61 3120.98,-59.25 3110.71,-56.64 3111.32,-63.61"/>
</g>
<!-- Node0x634dfbc36710 -->
<g id="node6" class="node">
<title>Node0x634dfbc36710</title>
<polygon fill="none" stroke="black" points="917,-132.5 0,-132.5 0,-96.5 917,-96.5 917,-132.5"/>
<text text-anchor="middle" x="458.5" y="-110.8" font-family="Times,serif" font-size="14.00">{CallGraphNode ID: 2 {fun: _ZN3std2rt10lang_start28_$u7b$$u7b$closure$u7d$$u7d$17h2aa3428957b6e91bE}|{&lt;s0&gt;4}}</text>
</g>
<!-- Node0x634dfbc36710&#45;&gt;Node0x634dfbc36680 -->
<g id="edge4" class="edge">
<title>Node0x634dfbc36710:s0&#45;&gt;Node0x634dfbc36680</title>
<path fill="none" stroke="black" d="M621.14,-96.49C724.8,-85.65 858.99,-71.62 964.59,-60.58"/>
<polygon fill="black" stroke="black" points="965.14,-64.04 974.72,-59.52 964.41,-57.08 965.14,-64.04"/>
</g>
<!-- Node0x634dfbc367a0 -->
<g id="node7" class="node">
<title>Node0x634dfbc367a0</title>
<polygon fill="none" stroke="black" points="2003.5,-132.5 935.5,-132.5 935.5,-96.5 2003.5,-96.5 2003.5,-132.5"/>
<text text-anchor="middle" x="1469.5" y="-110.8" font-family="Times,serif" font-size="14.00">{CallGraphNode ID: 3 {fun: _ZN4core3ops8function6FnOnce40call_once$u7b$$u7b$vtable.shim$u7d$$u7d$17h38b05db9e3b969c8E}|{&lt;s0&gt;5}}</text>
</g>
<!-- Node0x634dfbc367a0&#45;&gt;Node0x634dfbc36680 -->
<g id="edge5" class="edge">
<title>Node0x634dfbc367a0:s0&#45;&gt;Node0x634dfbc36680</title>
<path fill="none" stroke="black" d="M1389.98,-96.49C1340.97,-86.01 1278.01,-72.55 1227.22,-61.69"/>
<polygon fill="black" stroke="black" points="1227.75,-58.22 1217.24,-59.55 1226.28,-65.07 1227.75,-58.22"/>
</g>
<!-- Node0x634dfbbecd30 -->
<g id="node8" class="node">
<title>Node0x634dfbbecd30</title>
<polygon fill="none" stroke="black" points="4559,-132.5 3342,-132.5 3342,-96.5 4559,-96.5 4559,-132.5"/>
<text text-anchor="middle" x="3950.5" y="-110.8" font-family="Times,serif" font-size="14.00">{CallGraphNode ID: 4 {fun: _ZN4core3ptr85drop_in_place$LT$std..rt..lang_start$LT$$LP$$RP$$GT$..$u7b$$u7b$closure$u7d$$u7d$$GT$17hb5c6c67add76de9eE}}</text>
</g>
<!-- Node0x634dfbbece30 -->
<g id="node9" class="node">
<title>Node0x634dfbbece30</title>
<polygon fill="none" stroke="black" points="5176,-132.5 4577,-132.5 4577,-96.5 5176,-96.5 5176,-132.5"/>
<text text-anchor="middle" x="4876.5" y="-110.8" font-family="Times,serif" font-size="14.00">{CallGraphNode ID: 5 {fun: _ZN12rust_example4main17h23cf9e98865be002E}}</text>
</g>
<!-- Node0x634dfbbecf30 -->
<g id="node10" class="node">
<title>Node0x634dfbbecf30</title>
<polygon fill="none" stroke="black" points="3324,-132.5 2871,-132.5 2871,-96.5 3324,-96.5 3324,-132.5"/>
<text text-anchor="middle" x="3097.5" y="-110.8" font-family="Times,serif" font-size="14.00">{CallGraphNode ID: 6 {fun: main}|{&lt;s0&gt;6|&lt;s1&gt;7|&lt;s2&gt;8}}</text>
</g>
<!-- Node0x634dfbbecf30&#45;&gt;Node0x634dfbc177b0 -->
<g id="edge6" class="edge">
<title>Node0x634dfbbecf30:s0&#45;&gt;Node0x634dfbc177b0</title>
<path fill="none" stroke="black" d="M2893.37,-96.49C2771.65,-86.31 2613.76,-73.01 2463.93,-60.12"/>
<polygon fill="black" stroke="black" points="2463.88,-56.6 2453.62,-59.23 2463.28,-63.58 2463.88,-56.6"/>
</g>
<!-- Node0x634dfbbecf30&#45;&gt;Node0x634dfbc175b0 -->
<g id="edge7" class="edge">
<title>Node0x634dfbbecf30:s1&#45;&gt;Node0x634dfbc175b0</title>
<path fill="none" stroke="black" d="M3023.25,-96.49C2977.68,-86.06 2919.19,-72.66 2871.87,-61.82"/>
<polygon fill="black" stroke="black" points="2872.48,-58.37 2861.95,-59.55 2870.92,-65.2 2872.48,-58.37"/>
</g>
<!-- Node0x634dfbbecf30&#45;&gt;Node0x634dfbc176b0 -->
<g id="edge8" class="edge">
<title>Node0x634dfbbecf30:s2&#45;&gt;Node0x634dfbc176b0</title>
<path fill="none" stroke="black" d="M3146.6,-96.49C3175.68,-86.42 3212.7,-73.6 3243.37,-62.98"/>
<polygon fill="black" stroke="black" points="3244.78,-66.19 3253.09,-59.61 3242.49,-59.58 3244.78,-66.19"/>
</g>
<!-- Node0x634dfbbed030 -->
<g id="node11" class="node">
<title>Node0x634dfbbed030</title>
<path fill="none" stroke="black" d="M5206.5,-96.5C5206.5,-96.5 5542.5,-96.5 5542.5,-96.5 5548.5,-96.5 5554.5,-102.5 5554.5,-108.5 5554.5,-108.5 5554.5,-120.5 5554.5,-120.5 5554.5,-126.5 5548.5,-132.5 5542.5,-132.5 5542.5,-132.5 5206.5,-132.5 5206.5,-132.5 5200.5,-132.5 5194.5,-126.5 5194.5,-120.5 5194.5,-120.5 5194.5,-108.5 5194.5,-108.5 5194.5,-102.5 5200.5,-96.5 5206.5,-96.5"/>
<text text-anchor="middle" x="5374.5" y="-110.8" font-family="Times,serif" font-size="14.00">CallGraphNode ID: 7 {fun: rust_eh_personality}</text>
</g>
</g>
</svg>
