<?xml version="1.0" encoding="UTF-8" standalone="no"?>
<!DOCTYPE svg PUBLIC "-//W3C//DTD SVG 1.1//EN"
 "http://www.w3.org/Graphics/SVG/1.1/DTD/svg11.dtd">
<!-- Generated by graphviz version 2.43.0 (0)
 -->
<!-- Title: SVFG Pages: 1 -->
<svg width="3543pt" height="905pt"
 viewBox="0.00 0.00 3543.00 905.00" xmlns="http://www.w3.org/2000/svg" xmlns:xlink="http://www.w3.org/1999/xlink">
<g id="graph0" class="graph" transform="scale(1 1) rotate(0) translate(4 901)">
<title>SVFG</title>
<polygon fill="white" stroke="transparent" points="-4,4 -4,-901 3539,-901 3539,4 -4,4"/>
<text text-anchor="middle" x="1767.5" y="-7.8" font-family="Times,serif" font-size="14.00">SVFG</text>
<!-- Node0x634e8a4d1080 -->
<g id="node1" class="node">
<title>Node0x634e8a4d1080</title>
<polygon fill="none" stroke="grey" points="34.5,-859.5 34.5,-895.5 321.5,-895.5 321.5,-859.5 34.5,-859.5"/>
<text text-anchor="middle" x="178" y="-873.8" font-family="Times,serif" font-size="14.00">NullPtrVFGNode ID: 0 PAGNode ID: 0</text>
</g>
<!-- Node0x634e8a4c3b00 -->
<g id="node2" class="node">
<title>Node0x634e8a4c3b00</title>
<polygon fill="none" stroke="black" points="0,-772 0,-810 356,-810 356,-772 0,-772"/>
<text text-anchor="middle" x="178" y="-794.8" font-family="Times,serif" font-size="14.00">CopyVFGNode ID: 9 CopyStmt: [Var1 &lt;&#45;&#45; Var0] </text>
<text text-anchor="middle" x="178" y="-779.8" font-family="Times,serif" font-size="14.00"> ptr null { constant data }</text>
</g>
<!-- Node0x634e8a4d1080&#45;&gt;Node0x634e8a4c3b00 -->
<g id="edge1" class="edge">
<title>Node0x634e8a4d1080&#45;&gt;Node0x634e8a4c3b00</title>
<path fill="none" stroke="black" d="M178,-859.4C178,-848.25 178,-833.42 178,-820.51"/>
<polygon fill="black" stroke="black" points="181.5,-820.24 178,-810.24 174.5,-820.24 181.5,-820.24"/>
</g>
<!-- Node0x634e8a4ef450 -->
<g id="node3" class="node">
<title>Node0x634e8a4ef450</title>
<polygon fill="none" stroke="green" points="339.5,-858.5 339.5,-896.5 710.5,-896.5 710.5,-858.5 339.5,-858.5"/>
<text text-anchor="middle" x="525" y="-881.3" font-family="Times,serif" font-size="14.00">AddrVFGNode ID: 5 AddrStmt: [Var17 &lt;&#45;&#45; Var18] </text>
<text text-anchor="middle" x="525" y="-866.3" font-family="Times,serif" font-size="14.00"> %a1 = alloca i8, align 1</text>
</g>
<!-- Node0x634e8a4b6590 -->
<g id="node4" class="node">
<title>Node0x634e8a4b6590</title>
<polygon fill="none" stroke="blue" points="775.5,-772 775.5,-810 1164.5,-810 1164.5,-772 775.5,-772"/>
<text text-anchor="middle" x="970" y="-794.8" font-family="Times,serif" font-size="14.00">StoreVFGNode ID: 14 StoreStmt: [Var22 &lt;&#45;&#45; Var17] </text>
<text text-anchor="middle" x="970" y="-779.8" font-family="Times,serif" font-size="14.00"> store ptr %a1, ptr %a, align 8</text>
</g>
<!-- Node0x634e8a4ef450&#45;&gt;Node0x634e8a4b6590 -->
<g id="edge2" class="edge">
<title>Node0x634e8a4ef450&#45;&gt;Node0x634e8a4b6590</title>
<path fill="none" stroke="black" d="M619.92,-858.48C691.86,-844.82 790.68,-826.05 864.99,-811.94"/>
<polygon fill="black" stroke="black" points="865.67,-815.37 874.85,-810.07 864.37,-808.5 865.67,-815.37"/>
</g>
<!-- Node0x634e8a4f2ae0 -->
<g id="node17" class="node">
<title>Node0x634e8a4f2ae0</title>
<polygon fill="none" stroke="yellow" stroke-width="2" points="557.5,-647.5 557.5,-723.5 1382.5,-723.5 1382.5,-647.5 557.5,-647.5"/>
<text text-anchor="middle" x="970" y="-708.3" font-family="Times,serif" font-size="14.00">ActualINSVFGNode ID: 31 at callsite: call void @swap(ptr noundef %a, ptr noundef %b) {fun: main}CSMU(2V_2)</text>
<text text-anchor="middle" x="970" y="-693.3" font-family="Times,serif" font-size="14.00">pts{23 }</text>
<text text-anchor="middle" x="970" y="-678.3" font-family="Times,serif" font-size="14.00">CS[]</text>
<polyline fill="none" stroke="yellow" stroke-width="2" points="557.5,-670.5 1382.5,-670.5 "/>
<text text-anchor="middle" x="970" y="-655.3" font-family="Times,serif" font-size="14.00">1</text>
</g>
<!-- Node0x634e8a4b6590&#45;&gt;Node0x634e8a4f2ae0 -->
<g id="edge12" class="edge">
<title>Node0x634e8a4b6590&#45;&gt;Node0x634e8a4f2ae0</title>
<path fill="none" stroke="black" stroke-dasharray="5,2" d="M970,-771.97C970,-761.36 970,-747.39 970,-733.83"/>
<polygon fill="black" stroke="black" points="973.5,-733.6 970,-723.6 966.5,-733.6 973.5,-733.6"/>
</g>
<!-- Node0x634e8a4c36b0 -->
<g id="node5" class="node">
<title>Node0x634e8a4c36b0</title>
<polygon fill="none" stroke="green" points="2495.5,-772 2495.5,-810 2866.5,-810 2866.5,-772 2495.5,-772"/>
<text text-anchor="middle" x="2681" y="-794.8" font-family="Times,serif" font-size="14.00">AddrVFGNode ID: 6 AddrStmt: [Var20 &lt;&#45;&#45; Var21] </text>
<text text-anchor="middle" x="2681" y="-779.8" font-family="Times,serif" font-size="14.00"> %b1 = alloca i8, align 1</text>
</g>
<!-- Node0x634e8a4f4bc0 -->
<g id="node6" class="node">
<title>Node0x634e8a4f4bc0</title>
<polygon fill="none" stroke="blue" points="2041.5,-666.5 2041.5,-704.5 2430.5,-704.5 2430.5,-666.5 2041.5,-666.5"/>
<text text-anchor="middle" x="2236" y="-689.3" font-family="Times,serif" font-size="14.00">StoreVFGNode ID: 15 StoreStmt: [Var24 &lt;&#45;&#45; Var20] </text>
<text text-anchor="middle" x="2236" y="-674.3" font-family="Times,serif" font-size="14.00"> store ptr %b1, ptr %b, align 8</text>
</g>
<!-- Node0x634e8a4c36b0&#45;&gt;Node0x634e8a4f4bc0 -->
<g id="edge3" class="edge">
<title>Node0x634e8a4c36b0&#45;&gt;Node0x634e8a4f4bc0</title>
<path fill="none" stroke="black" d="M2603.49,-771.97C2525.36,-753.8 2404.99,-725.8 2323.49,-706.85"/>
<polygon fill="black" stroke="black" points="2324.28,-703.44 2313.74,-704.58 2322.69,-710.26 2324.28,-703.44"/>
</g>
<!-- Node0x634e8a4f2900 -->
<g id="node18" class="node">
<title>Node0x634e8a4f2900</title>
<polygon fill="none" stroke="yellow" stroke-width="2" points="1823.5,-534.5 1823.5,-610.5 2648.5,-610.5 2648.5,-534.5 1823.5,-534.5"/>
<text text-anchor="middle" x="2236" y="-595.3" font-family="Times,serif" font-size="14.00">ActualINSVFGNode ID: 30 at callsite: call void @swap(ptr noundef %a, ptr noundef %b) {fun: main}CSMU(4V_2)</text>
<text text-anchor="middle" x="2236" y="-580.3" font-family="Times,serif" font-size="14.00">pts{25 }</text>
<text text-anchor="middle" x="2236" y="-565.3" font-family="Times,serif" font-size="14.00">CS[]</text>
<polyline fill="none" stroke="yellow" stroke-width="2" points="1823.5,-557.5 2648.5,-557.5 "/>
<text text-anchor="middle" x="2236" y="-542.3" font-family="Times,serif" font-size="14.00">1</text>
</g>
<!-- Node0x634e8a4f4bc0&#45;&gt;Node0x634e8a4f2900 -->
<g id="edge13" class="edge">
<title>Node0x634e8a4f4bc0&#45;&gt;Node0x634e8a4f2900</title>
<path fill="none" stroke="black" stroke-dasharray="5,2" d="M2236,-666.17C2236,-653.85 2236,-636.99 2236,-621.04"/>
<polygon fill="black" stroke="black" points="2239.5,-620.74 2236,-610.74 2232.5,-620.74 2239.5,-620.74"/>
</g>
<!-- Node0x634e8a4c3820 -->
<g id="node7" class="node">
<title>Node0x634e8a4c3820</title>
<polygon fill="none" stroke="green" points="1229.5,-858.5 1229.5,-896.5 1600.5,-896.5 1600.5,-858.5 1229.5,-858.5"/>
<text text-anchor="middle" x="1415" y="-881.3" font-family="Times,serif" font-size="14.00">AddrVFGNode ID: 7 AddrStmt: [Var22 &lt;&#45;&#45; Var23] </text>
<text text-anchor="middle" x="1415" y="-866.3" font-family="Times,serif" font-size="14.00"> %a = alloca ptr, align 8</text>
</g>
<!-- Node0x634e8a4c3820&#45;&gt;Node0x634e8a4b6590 -->
<g id="edge4" class="edge">
<title>Node0x634e8a4c3820&#45;&gt;Node0x634e8a4b6590</title>
<path fill="none" stroke="black" d="M1320.08,-858.48C1248.14,-844.82 1149.32,-826.05 1075.01,-811.94"/>
<polygon fill="black" stroke="black" points="1075.63,-808.5 1065.15,-810.07 1074.33,-815.37 1075.63,-808.5"/>
</g>
<!-- Node0x634e8a4ce460 -->
<g id="node8" class="node">
<title>Node0x634e8a4ce460</title>
<polygon fill="none" stroke="yellow" stroke-width="2" points="1243,-760.5 1243,-821.5 1587,-821.5 1587,-760.5 1243,-760.5"/>
<text text-anchor="middle" x="1415" y="-806.3" font-family="Times,serif" font-size="14.00">ActualParmVFGNode ID: 16 CS[]ValVar ID: 22</text>
<text text-anchor="middle" x="1415" y="-791.3" font-family="Times,serif" font-size="14.00"> %a = alloca ptr, align 8</text>
<polyline fill="none" stroke="yellow" stroke-width="2" points="1243,-783.5 1587,-783.5 "/>
<text text-anchor="middle" x="1415" y="-768.3" font-family="Times,serif" font-size="14.00">1</text>
</g>
<!-- Node0x634e8a4c3820&#45;&gt;Node0x634e8a4ce460 -->
<g id="edge5" class="edge">
<title>Node0x634e8a4c3820&#45;&gt;Node0x634e8a4ce460</title>
<path fill="none" stroke="black" d="M1415,-858.16C1415,-850.41 1415,-841.04 1415,-831.83"/>
<polygon fill="black" stroke="black" points="1418.5,-831.59 1415,-821.59 1411.5,-831.59 1418.5,-831.59"/>
</g>
<!-- Node0x634e8a4f4f60 -->
<g id="node19" class="node">
<title>Node0x634e8a4f4f60</title>
<polygon fill="none" stroke="yellow" stroke-width="2" points="1230.5,-553.5 1230.5,-591.5 1615.5,-591.5 1615.5,-553.5 1230.5,-553.5"/>
<text text-anchor="middle" x="1423" y="-576.3" font-family="Times,serif" font-size="14.00">FormalParmVFGNode ID: 18 Fun[swap]ValVar ID: 7</text>
<text text-anchor="middle" x="1423" y="-561.3" font-family="Times,serif" font-size="14.00"> ptr %p { 0th arg swap }</text>
</g>
<!-- Node0x634e8a4ce460&#45;&gt;Node0x634e8a4f4f60 -->
<g id="edge14" class="edge">
<title>Node0x634e8a4ce460:s0&#45;&gt;Node0x634e8a4f4f60</title>
<path fill="none" stroke="red" d="M1415,-760C1415,-704.05 1418.64,-638.75 1421.01,-602.15"/>
<polygon fill="red" stroke="red" points="1424.53,-601.96 1421.7,-591.75 1417.54,-601.5 1424.53,-601.96"/>
</g>
<!-- Node0x634e8a4c3990 -->
<g id="node9" class="node">
<title>Node0x634e8a4c3990</title>
<polygon fill="none" stroke="green" points="1605.5,-772 1605.5,-810 1976.5,-810 1976.5,-772 1605.5,-772"/>
<text text-anchor="middle" x="1791" y="-794.8" font-family="Times,serif" font-size="14.00">AddrVFGNode ID: 8 AddrStmt: [Var24 &lt;&#45;&#45; Var25] </text>
<text text-anchor="middle" x="1791" y="-779.8" font-family="Times,serif" font-size="14.00"> %b = alloca ptr, align 8</text>
</g>
<!-- Node0x634e8a4c3990&#45;&gt;Node0x634e8a4f4bc0 -->
<g id="edge6" class="edge">
<title>Node0x634e8a4c3990&#45;&gt;Node0x634e8a4f4bc0</title>
<path fill="none" stroke="black" d="M1868.51,-771.97C1946.64,-753.8 2067.01,-725.8 2148.51,-706.85"/>
<polygon fill="black" stroke="black" points="2149.31,-710.26 2158.26,-704.58 2147.72,-703.44 2149.31,-710.26"/>
</g>
<!-- Node0x634e8a4cc6c0 -->
<g id="node10" class="node">
<title>Node0x634e8a4cc6c0</title>
<polygon fill="none" stroke="yellow" stroke-width="2" points="1615,-655 1615,-716 1959,-716 1959,-655 1615,-655"/>
<text text-anchor="middle" x="1787" y="-700.8" font-family="Times,serif" font-size="14.00">ActualParmVFGNode ID: 17 CS[]ValVar ID: 24</text>
<text text-anchor="middle" x="1787" y="-685.8" font-family="Times,serif" font-size="14.00"> %b = alloca ptr, align 8</text>
<polyline fill="none" stroke="yellow" stroke-width="2" points="1615,-678 1959,-678 "/>
<text text-anchor="middle" x="1787" y="-662.8" font-family="Times,serif" font-size="14.00">1</text>
</g>
<!-- Node0x634e8a4c3990&#45;&gt;Node0x634e8a4cc6c0 -->
<g id="edge7" class="edge">
<title>Node0x634e8a4c3990&#45;&gt;Node0x634e8a4cc6c0</title>
<path fill="none" stroke="black" d="M1790.3,-771.97C1789.81,-759.33 1789.14,-741.94 1788.53,-726.15"/>
<polygon fill="black" stroke="black" points="1792.03,-725.92 1788.14,-716.06 1785.03,-726.19 1792.03,-725.92"/>
</g>
<!-- Node0x634e8a4c16e0 -->
<g id="node20" class="node">
<title>Node0x634e8a4c16e0</title>
<polygon fill="none" stroke="yellow" stroke-width="2" points="1590.5,-459.5 1590.5,-497.5 1975.5,-497.5 1975.5,-459.5 1590.5,-459.5"/>
<text text-anchor="middle" x="1783" y="-482.3" font-family="Times,serif" font-size="14.00">FormalParmVFGNode ID: 19 Fun[swap]ValVar ID: 8</text>
<text text-anchor="middle" x="1783" y="-467.3" font-family="Times,serif" font-size="14.00"> ptr %q { 1st arg swap }</text>
</g>
<!-- Node0x634e8a4cc6c0&#45;&gt;Node0x634e8a4c16e0 -->
<g id="edge15" class="edge">
<title>Node0x634e8a4cc6c0:s0&#45;&gt;Node0x634e8a4c16e0</title>
<path fill="none" stroke="red" d="M1787,-653.5C1787,-602.24 1785.24,-542.51 1784.06,-508.04"/>
<polygon fill="red" stroke="red" points="1787.55,-507.65 1783.7,-497.78 1780.55,-507.9 1787.55,-507.65"/>
</g>
<!-- Node0x634e8a4c3c70 -->
<g id="node11" class="node">
<title>Node0x634e8a4c3c70</title>
<polygon fill="none" stroke="red" points="1033,-459.5 1033,-497.5 1395,-497.5 1395,-459.5 1033,-459.5"/>
<text text-anchor="middle" x="1214" y="-482.3" font-family="Times,serif" font-size="14.00">LoadVFGNode ID: 10 LoadStmt: [Var9 &lt;&#45;&#45; Var7] </text>
<text text-anchor="middle" x="1214" y="-467.3" font-family="Times,serif" font-size="14.00"> %0 = load ptr, ptr %p, align 8</text>
</g>
<!-- Node0x634e8a4b6450 -->
<g id="node12" class="node">
<title>Node0x634e8a4b6450</title>
<polygon fill="none" stroke="blue" points="1597.5,-384.5 1597.5,-422.5 1968.5,-422.5 1968.5,-384.5 1597.5,-384.5"/>
<text text-anchor="middle" x="1783" y="-407.3" font-family="Times,serif" font-size="14.00">StoreVFGNode ID: 13 StoreStmt: [Var8 &lt;&#45;&#45; Var9] </text>
<text text-anchor="middle" x="1783" y="-392.3" font-family="Times,serif" font-size="14.00"> store ptr %0, ptr %q, align 8</text>
</g>
<!-- Node0x634e8a4c3c70&#45;&gt;Node0x634e8a4b6450 -->
<g id="edge8" class="edge">
<title>Node0x634e8a4c3c70&#45;&gt;Node0x634e8a4b6450</title>
<path fill="none" stroke="black" d="M1354.65,-459.46C1439.02,-448.63 1546.28,-434.87 1632.37,-423.83"/>
<polygon fill="black" stroke="black" points="1633.01,-427.27 1642.49,-422.53 1632.12,-420.33 1633.01,-427.27"/>
</g>
<!-- Node0x634e8a4e60a0 -->
<g id="node16" class="node">
<title>Node0x634e8a4e60a0</title>
<polygon fill="none" stroke="yellow" stroke-width="2" points="1637,-286.5 1637,-347.5 2055,-347.5 2055,-286.5 1637,-286.5"/>
<text text-anchor="middle" x="1846" y="-332.3" font-family="Times,serif" font-size="14.00">FormalOUTSVFGNode ID: 28 {fun: swap}RETMU(4V_2)</text>
<text text-anchor="middle" x="1846" y="-317.3" font-family="Times,serif" font-size="14.00">pts{25 }</text>
<polyline fill="none" stroke="yellow" stroke-width="2" points="1637,-309.5 2055,-309.5 "/>
<text text-anchor="middle" x="1846" y="-294.3" font-family="Times,serif" font-size="14.00">1</text>
</g>
<!-- Node0x634e8a4b6450&#45;&gt;Node0x634e8a4e60a0 -->
<g id="edge11" class="edge">
<title>Node0x634e8a4b6450&#45;&gt;Node0x634e8a4e60a0</title>
<path fill="none" stroke="black" stroke-dasharray="5,2" d="M1796.67,-384.16C1802.89,-375.82 1810.49,-365.62 1817.85,-355.76"/>
<polygon fill="black" stroke="black" points="1820.76,-357.7 1823.94,-347.59 1815.15,-353.52 1820.76,-357.7"/>
</g>
<!-- Node0x634e8a4b61a0 -->
<g id="node13" class="node">
<title>Node0x634e8a4b61a0</title>
<polygon fill="none" stroke="red" points="1986.5,-384.5 1986.5,-422.5 2357.5,-422.5 2357.5,-384.5 1986.5,-384.5"/>
<text text-anchor="middle" x="2172" y="-407.3" font-family="Times,serif" font-size="14.00">LoadVFGNode ID: 11 LoadStmt: [Var10 &lt;&#45;&#45; Var8] </text>
<text text-anchor="middle" x="2172" y="-392.3" font-family="Times,serif" font-size="14.00"> %1 = load ptr, ptr %q, align 8</text>
</g>
<!-- Node0x634e8a4b6310 -->
<g id="node14" class="node">
<title>Node0x634e8a4b6310</title>
<polygon fill="none" stroke="blue" points="1170,-298 1170,-336 1550,-336 1550,-298 1170,-298"/>
<text text-anchor="middle" x="1360" y="-320.8" font-family="Times,serif" font-size="14.00">StoreVFGNode ID: 12 StoreStmt: [Var7 &lt;&#45;&#45; Var10] </text>
<text text-anchor="middle" x="1360" y="-305.8" font-family="Times,serif" font-size="14.00"> store ptr %1, ptr %p, align 8</text>
</g>
<!-- Node0x634e8a4b61a0&#45;&gt;Node0x634e8a4b6310 -->
<g id="edge9" class="edge">
<title>Node0x634e8a4b61a0&#45;&gt;Node0x634e8a4b6310</title>
<path fill="none" stroke="black" d="M1986.88,-384.49C1881.63,-374.12 1747.4,-360.66 1628,-348 1595.83,-344.59 1561.5,-340.83 1528.52,-337.17"/>
<polygon fill="black" stroke="black" points="1528.66,-333.66 1518.33,-336.03 1527.88,-340.62 1528.66,-333.66"/>
</g>
<!-- Node0x634e8a4e6280 -->
<g id="node15" class="node">
<title>Node0x634e8a4e6280</title>
<polygon fill="none" stroke="yellow" stroke-width="2" points="1014,-188.5 1014,-249.5 1432,-249.5 1432,-188.5 1014,-188.5"/>
<text text-anchor="middle" x="1223" y="-234.3" font-family="Times,serif" font-size="14.00">FormalOUTSVFGNode ID: 29 {fun: swap}RETMU(2V_2)</text>
<text text-anchor="middle" x="1223" y="-219.3" font-family="Times,serif" font-size="14.00">pts{23 }</text>
<polyline fill="none" stroke="yellow" stroke-width="2" points="1014,-211.5 1432,-211.5 "/>
<text text-anchor="middle" x="1223" y="-196.3" font-family="Times,serif" font-size="14.00">1</text>
</g>
<!-- Node0x634e8a4b6310&#45;&gt;Node0x634e8a4e6280 -->
<g id="edge10" class="edge">
<title>Node0x634e8a4b6310&#45;&gt;Node0x634e8a4e6280</title>
<path fill="none" stroke="black" stroke-dasharray="5,2" d="M1334.23,-297.94C1317.2,-286.01 1294.3,-269.96 1273.71,-255.53"/>
<polygon fill="black" stroke="black" points="1275.55,-252.55 1265.35,-249.67 1271.53,-258.28 1275.55,-252.55"/>
</g>
<!-- Node0x634e8a4f2ed0 -->
<g id="node30" class="node">
<title>Node0x634e8a4f2ed0</title>
<polygon fill="none" stroke="yellow" stroke-width="2" points="758.5,-98.5 758.5,-151.5 1687.5,-151.5 1687.5,-98.5 758.5,-98.5"/>
<text text-anchor="middle" x="1223" y="-136.3" font-family="Times,serif" font-size="14.00">ActualOUTSVFGNode ID: 33 at callsite: call void @swap(ptr noundef %a, ptr noundef %b) {fun: main}2V_3 = CSCHI(MR_2V_3)</text>
<text text-anchor="middle" x="1223" y="-121.3" font-family="Times,serif" font-size="14.00">pts{23 }</text>
<text text-anchor="middle" x="1223" y="-106.3" font-family="Times,serif" font-size="14.00">CS[]</text>
</g>
<!-- Node0x634e8a4e6280&#45;&gt;Node0x634e8a4f2ed0 -->
<g id="edge28" class="edge">
<title>Node0x634e8a4e6280:s0&#45;&gt;Node0x634e8a4f2ed0</title>
<path fill="none" stroke="blue" stroke-dasharray="5,2" d="M1223,-188C1223,-179.51 1223,-170.36 1223,-161.76"/>
<polygon fill="blue" stroke="blue" points="1226.5,-161.64 1223,-151.64 1219.5,-161.64 1226.5,-161.64"/>
</g>
<!-- Node0x634e8a4f2c50 -->
<g id="node29" class="node">
<title>Node0x634e8a4f2c50</title>
<polygon fill="none" stroke="yellow" stroke-width="2" points="1450.5,-192.5 1450.5,-245.5 2379.5,-245.5 2379.5,-192.5 1450.5,-192.5"/>
<text text-anchor="middle" x="1915" y="-230.3" font-family="Times,serif" font-size="14.00">ActualOUTSVFGNode ID: 32 at callsite: call void @swap(ptr noundef %a, ptr noundef %b) {fun: main}4V_3 = CSCHI(MR_4V_3)</text>
<text text-anchor="middle" x="1915" y="-215.3" font-family="Times,serif" font-size="14.00">pts{25 }</text>
<text text-anchor="middle" x="1915" y="-200.3" font-family="Times,serif" font-size="14.00">CS[]</text>
</g>
<!-- Node0x634e8a4e60a0&#45;&gt;Node0x634e8a4f2c50 -->
<g id="edge27" class="edge">
<title>Node0x634e8a4e60a0:s0&#45;&gt;Node0x634e8a4f2c50</title>
<path fill="none" stroke="blue" stroke-dasharray="5,2" d="M1846,-286C1846,-272.92 1852.55,-261.64 1861.62,-252.28"/>
<polygon fill="blue" stroke="blue" points="1863.99,-254.85 1868.98,-245.51 1859.25,-249.71 1863.99,-254.85"/>
</g>
<!-- Node0x634e8a494850 -->
<g id="node26" class="node">
<title>Node0x634e8a494850</title>
<polygon fill="none" stroke="yellow" stroke-width="2" points="728,-553.5 728,-591.5 1212,-591.5 1212,-553.5 728,-553.5"/>
<text text-anchor="middle" x="970" y="-576.3" font-family="Times,serif" font-size="14.00">FormalINSVFGNode ID: 25 {fun: swap}2V_1 = ENCHI(MR_2V_1)</text>
<text text-anchor="middle" x="970" y="-561.3" font-family="Times,serif" font-size="14.00">pts{23 }</text>
</g>
<!-- Node0x634e8a4f2ae0&#45;&gt;Node0x634e8a494850 -->
<g id="edge30" class="edge">
<title>Node0x634e8a4f2ae0:s0&#45;&gt;Node0x634e8a494850</title>
<path fill="none" stroke="red" stroke-dasharray="5,2" d="M970,-647C970,-632.1 970,-615.5 970,-601.85"/>
<polygon fill="red" stroke="red" points="973.5,-601.62 970,-591.62 966.5,-601.62 973.5,-601.62"/>
</g>
<!-- Node0x634e8a494a20 -->
<g id="node25" class="node">
<title>Node0x634e8a494a20</title>
<polygon fill="none" stroke="yellow" stroke-width="2" points="1994,-459.5 1994,-497.5 2478,-497.5 2478,-459.5 1994,-459.5"/>
<text text-anchor="middle" x="2236" y="-482.3" font-family="Times,serif" font-size="14.00">FormalINSVFGNode ID: 24 {fun: swap}4V_1 = ENCHI(MR_4V_1)</text>
<text text-anchor="middle" x="2236" y="-467.3" font-family="Times,serif" font-size="14.00">pts{25 }</text>
</g>
<!-- Node0x634e8a4f2900&#45;&gt;Node0x634e8a494a20 -->
<g id="edge29" class="edge">
<title>Node0x634e8a4f2900:s0&#45;&gt;Node0x634e8a494a20</title>
<path fill="none" stroke="red" stroke-dasharray="5,2" d="M2236,-534C2236,-525.48 2236,-516.22 2236,-507.79"/>
<polygon fill="red" stroke="red" points="2239.5,-507.67 2236,-497.67 2232.5,-507.67 2239.5,-507.67"/>
</g>
<!-- Node0x634e8a4f4f60&#45;&gt;Node0x634e8a4c3c70 -->
<g id="edge16" class="edge">
<title>Node0x634e8a4f4f60&#45;&gt;Node0x634e8a4c3c70</title>
<path fill="none" stroke="black" d="M1381.71,-553.32C1348.07,-538.52 1300.44,-517.55 1264.53,-501.74"/>
<polygon fill="black" stroke="black" points="1265.77,-498.46 1255.21,-497.64 1262.95,-504.87 1265.77,-498.46"/>
</g>
<!-- Node0x634e8a4f4f60&#45;&gt;Node0x634e8a4b6310 -->
<g id="edge17" class="edge">
<title>Node0x634e8a4f4f60&#45;&gt;Node0x634e8a4b6310</title>
<path fill="none" stroke="black" d="M1420.71,-553.42C1417.71,-531.07 1411.88,-491.94 1404,-459 1394.43,-419.02 1379.59,-373.82 1369.84,-345.61"/>
<polygon fill="black" stroke="black" points="1373.09,-344.32 1366.49,-336.03 1366.48,-346.63 1373.09,-344.32"/>
</g>
<!-- Node0x634e8a4c16e0&#45;&gt;Node0x634e8a4b6450 -->
<g id="edge19" class="edge">
<title>Node0x634e8a4c16e0&#45;&gt;Node0x634e8a4b6450</title>
<path fill="none" stroke="black" d="M1783,-459.46C1783,-451.38 1783,-441.68 1783,-432.68"/>
<polygon fill="black" stroke="black" points="1786.5,-432.59 1783,-422.59 1779.5,-432.59 1786.5,-432.59"/>
</g>
<!-- Node0x634e8a4c16e0&#45;&gt;Node0x634e8a4b61a0 -->
<g id="edge18" class="edge">
<title>Node0x634e8a4c16e0&#45;&gt;Node0x634e8a4b61a0</title>
<path fill="none" stroke="black" d="M1879.16,-459.46C1935.84,-448.82 2007.64,-435.34 2065.96,-424.4"/>
<polygon fill="black" stroke="black" points="2066.76,-427.81 2075.94,-422.53 2065.46,-420.93 2066.76,-427.81"/>
</g>
<!-- Node0x634e8a4c19f0 -->
<g id="node21" class="node">
<title>Node0x634e8a4c19f0</title>
<polygon fill="none" stroke="yellow" stroke-width="2" points="2885,-773 2885,-809 3535,-809 3535,-773 2885,-773"/>
<text text-anchor="middle" x="3210" y="-787.3" font-family="Times,serif" font-size="14.00">FormalRetVFGNode ID: 20 Fun[main]RetPN ID: 16 unique return node for function main</text>
</g>
<!-- Node0x634e8a4c1b50 -->
<g id="node22" class="node">
<title>Node0x634e8a4c1b50</title>
<polygon fill="none" stroke="black" points="2959.5,-859.5 2959.5,-895.5 3460.5,-895.5 3460.5,-859.5 2959.5,-859.5"/>
<text text-anchor="middle" x="3210" y="-873.8" font-family="Times,serif" font-size="14.00">IntraPHIVFGNode ID: 21 PAGNode: [16 = PHI(30, )] Function: main</text>
</g>
<!-- Node0x634e8a4c1b50&#45;&gt;Node0x634e8a4c19f0 -->
<g id="edge20" class="edge">
<title>Node0x634e8a4c1b50&#45;&gt;Node0x634e8a4c19f0</title>
<path fill="none" stroke="black" d="M3210,-859.4C3210,-847.83 3210,-832.31 3210,-819.08"/>
<polygon fill="black" stroke="black" points="3213.5,-819.07 3210,-809.07 3206.5,-819.07 3213.5,-819.07"/>
</g>
<!-- Node0x634e8a494c90 -->
<g id="node23" class="node">
<title>Node0x634e8a494c90</title>
<polygon fill="none" stroke="yellow" stroke-width="2" points="1995,-772 1995,-810 2477,-810 2477,-772 1995,-772"/>
<text text-anchor="middle" x="2236" y="-794.8" font-family="Times,serif" font-size="14.00">FormalINSVFGNode ID: 22 {fun: main}4V_1 = ENCHI(MR_4V_1)</text>
<text text-anchor="middle" x="2236" y="-779.8" font-family="Times,serif" font-size="14.00">pts{25 }</text>
</g>
<!-- Node0x634e8a494c90&#45;&gt;Node0x634e8a4f4bc0 -->
<g id="edge21" class="edge">
<title>Node0x634e8a494c90&#45;&gt;Node0x634e8a4f4bc0</title>
<path fill="none" stroke="black" stroke-dasharray="5,2" d="M2236,-771.97C2236,-756.19 2236,-732.99 2236,-714.75"/>
<polygon fill="black" stroke="black" points="2239.5,-714.67 2236,-704.67 2232.5,-714.67 2239.5,-714.67"/>
</g>
<!-- Node0x634e8a494bd0 -->
<g id="node24" class="node">
<title>Node0x634e8a494bd0</title>
<polygon fill="none" stroke="yellow" stroke-width="2" points="729,-858.5 729,-896.5 1211,-896.5 1211,-858.5 729,-858.5"/>
<text text-anchor="middle" x="970" y="-881.3" font-family="Times,serif" font-size="14.00">FormalINSVFGNode ID: 23 {fun: main}2V_1 = ENCHI(MR_2V_1)</text>
<text text-anchor="middle" x="970" y="-866.3" font-family="Times,serif" font-size="14.00">pts{23 }</text>
</g>
<!-- Node0x634e8a494bd0&#45;&gt;Node0x634e8a4b6590 -->
<g id="edge22" class="edge">
<title>Node0x634e8a494bd0&#45;&gt;Node0x634e8a4b6590</title>
<path fill="none" stroke="black" stroke-dasharray="5,2" d="M970,-858.16C970,-847.13 970,-832.84 970,-820.37"/>
<polygon fill="black" stroke="black" points="973.5,-820.01 970,-810.01 966.5,-820.01 973.5,-820.01"/>
</g>
<!-- Node0x634e8a494a20&#45;&gt;Node0x634e8a4b6450 -->
<g id="edge24" class="edge">
<title>Node0x634e8a494a20&#45;&gt;Node0x634e8a4b6450</title>
<path fill="none" stroke="black" stroke-dasharray="5,2" d="M2124.02,-459.46C2057.47,-448.73 1973.02,-435.12 1904.81,-424.13"/>
<polygon fill="black" stroke="black" points="1905.3,-420.66 1894.87,-422.53 1904.18,-427.57 1905.3,-420.66"/>
</g>
<!-- Node0x634e8a494a20&#45;&gt;Node0x634e8a4b61a0 -->
<g id="edge23" class="edge">
<title>Node0x634e8a494a20&#45;&gt;Node0x634e8a4b61a0</title>
<path fill="none" stroke="black" stroke-dasharray="5,2" d="M2220.18,-459.46C2212.49,-450.68 2203.1,-439.98 2194.67,-430.35"/>
<polygon fill="black" stroke="black" points="2197.08,-427.8 2187.86,-422.59 2191.82,-432.42 2197.08,-427.8"/>
</g>
<!-- Node0x634e8a494850&#45;&gt;Node0x634e8a4c3c70 -->
<g id="edge25" class="edge">
<title>Node0x634e8a494850&#45;&gt;Node0x634e8a4c3c70</title>
<path fill="none" stroke="black" stroke-dasharray="5,2" d="M1017.92,-553.43C1057.7,-538.43 1114.41,-517.05 1156.61,-501.14"/>
<polygon fill="black" stroke="black" points="1158.07,-504.33 1166.19,-497.53 1155.6,-497.78 1158.07,-504.33"/>
</g>
<!-- Node0x634e8a494850&#45;&gt;Node0x634e8a4b6310 -->
<g id="edge26" class="edge">
<title>Node0x634e8a494850&#45;&gt;Node0x634e8a4b6310</title>
<path fill="none" stroke="black" stroke-dasharray="5,2" d="M974.43,-553.11C981.21,-528.6 996.37,-485.28 1024,-459 1090.68,-395.58 1190.08,-358.71 1263.47,-338.69"/>
<polygon fill="black" stroke="black" points="1264.44,-342.06 1273.2,-336.09 1262.63,-335.29 1264.44,-342.06"/>
</g>
<!-- Node0x634e8a4f8800 -->
<g id="node27" class="node">
<title>Node0x634e8a4f8800</title>
<polygon fill="none" stroke="yellow" stroke-width="2" points="1707,-106 1707,-144 2123,-144 2123,-106 1707,-106"/>
<text text-anchor="middle" x="1915" y="-128.8" font-family="Times,serif" font-size="14.00">FormalOUTSVFGNode ID: 26 {fun: main}RETMU(4V_3)</text>
<text text-anchor="middle" x="1915" y="-113.8" font-family="Times,serif" font-size="14.00">pts{25 }</text>
</g>
<!-- Node0x634e8a4e5e40 -->
<g id="node28" class="node">
<title>Node0x634e8a4e5e40</title>
<polygon fill="none" stroke="yellow" stroke-width="2" points="1015,-23.5 1015,-61.5 1431,-61.5 1431,-23.5 1015,-23.5"/>
<text text-anchor="middle" x="1223" y="-46.3" font-family="Times,serif" font-size="14.00">FormalOUTSVFGNode ID: 27 {fun: main}RETMU(2V_3)</text>
<text text-anchor="middle" x="1223" y="-31.3" font-family="Times,serif" font-size="14.00">pts{23 }</text>
</g>
<!-- Node0x634e8a4f2c50&#45;&gt;Node0x634e8a4f8800 -->
<g id="edge31" class="edge">
<title>Node0x634e8a4f2c50&#45;&gt;Node0x634e8a4f8800</title>
<path fill="none" stroke="black" stroke-dasharray="5,2" d="M1915,-192.37C1915,-180.53 1915,-166.43 1915,-154.28"/>
<polygon fill="black" stroke="black" points="1918.5,-154.2 1915,-144.2 1911.5,-154.2 1918.5,-154.2"/>
</g>
<!-- Node0x634e8a4f2ed0&#45;&gt;Node0x634e8a4e5e40 -->
<g id="edge32" class="edge">
<title>Node0x634e8a4f2ed0&#45;&gt;Node0x634e8a4e5e40</title>
<path fill="none" stroke="black" stroke-dasharray="5,2" d="M1223,-98.09C1223,-89.81 1223,-80.61 1223,-72.15"/>
<polygon fill="black" stroke="black" points="1226.5,-71.97 1223,-61.97 1219.5,-71.97 1226.5,-71.97"/>
</g>
</g>
</svg>
