<?xml version="1.0" encoding="UTF-8" standalone="no"?>
<!DOCTYPE svg PUBLIC "-//W3C//DTD SVG 1.1//EN"
 "http://www.w3.org/Graphics/SVG/1.1/DTD/svg11.dtd">
<!-- Generated by graphviz version 2.43.0 (0)
 -->
<!-- Title: Call Graph Pages: 1 -->
<svg width="6921pt" height="358pt"
 viewBox="0.00 0.00 6921.00 358.00" xmlns="http://www.w3.org/2000/svg" xmlns:xlink="http://www.w3.org/1999/xlink">
<g id="graph0" class="graph" transform="scale(1 1) rotate(0) translate(4 354)">
<title>Call Graph</title>
<polygon fill="white" stroke="transparent" points="-4,4 -4,-354 6917,-354 6917,4 -4,4"/>
<text text-anchor="middle" x="3456.5" y="-7.8" font-family="Times,serif" font-size="14.00">Call Graph</text>
<!-- Node0x5ad4c0804b70 -->
<g id="node1" class="node">
<title>Node0x5ad4c0804b70</title>
<path fill="none" stroke="black" d="M305.5,-240.5C305.5,-240.5 677.5,-240.5 677.5,-240.5 683.5,-240.5 689.5,-246.5 689.5,-252.5 689.5,-252.5 689.5,-264.5 689.5,-264.5 689.5,-270.5 683.5,-276.5 677.5,-276.5 677.5,-276.5 305.5,-276.5 305.5,-276.5 299.5,-276.5 293.5,-270.5 293.5,-264.5 293.5,-264.5 293.5,-252.5 293.5,-252.5 293.5,-246.5 299.5,-240.5 305.5,-240.5"/>
<text text-anchor="middle" x="491.5" y="-254.8" font-family="Times,serif" font-size="14.00">CallGraphNode ID: 0 {fun: llvm_memcpy_p0_p0_i64}</text>
</g>
<!-- Node0x5ad4c080d090 -->
<g id="node2" class="node">
<title>Node0x5ad4c080d090</title>
<polygon fill="none" stroke="black" points="2644.5,-276.5 1986.5,-276.5 1986.5,-240.5 2644.5,-240.5 2644.5,-276.5"/>
<text text-anchor="middle" x="2315.5" y="-254.8" font-family="Times,serif" font-size="14.00">{CallGraphNode ID: 1 {fun: _ZN3std2rt10lang_start17heb66d8d650999fa6E}|{&lt;s0&gt;1}}</text>
</g>
<!-- Node0x5ad4c0881070 -->
<g id="node3" class="node">
<title>Node0x5ad4c0881070</title>
<path fill="none" stroke="black" d="M2010,-167.5C2010,-167.5 2621,-167.5 2621,-167.5 2627,-167.5 2633,-173.5 2633,-179.5 2633,-179.5 2633,-191.5 2633,-191.5 2633,-197.5 2627,-203.5 2621,-203.5 2621,-203.5 2010,-203.5 2010,-203.5 2004,-203.5 1998,-197.5 1998,-191.5 1998,-191.5 1998,-179.5 1998,-179.5 1998,-173.5 2004,-167.5 2010,-167.5"/>
<text text-anchor="middle" x="2315.5" y="-181.8" font-family="Times,serif" font-size="14.00">CallGraphNode ID: 13 {fun: _ZN3std2rt19lang_start_internal17h5e7c81cecd7f0954E}</text>
</g>
<!-- Node0x5ad4c080d090&#45;&gt;Node0x5ad4c0881070 -->
<g id="edge1" class="edge">
<title>Node0x5ad4c080d090:s0&#45;&gt;Node0x5ad4c0881070</title>
<path fill="none" stroke="black" d="M2315.5,-240.31C2315.5,-232.29 2315.5,-222.55 2315.5,-213.57"/>
<polygon fill="black" stroke="black" points="2319,-213.53 2315.5,-203.53 2312,-213.53 2319,-213.53"/>
</g>
<!-- Node0x5ad4c080d190 -->
<g id="node4" class="node">
<title>Node0x5ad4c080d190</title>
<polygon fill="none" stroke="black" points="3618,-203.5 2651,-203.5 2651,-167.5 3618,-167.5 3618,-203.5"/>
<text text-anchor="middle" x="3134.5" y="-181.8" font-family="Times,serif" font-size="14.00">{CallGraphNode ID: 2 {fun: _ZN3std2rt10lang_start28_$u7b$$u7b$closure$u7d$$u7d$17hfbda0c88a388407bE}|{&lt;s0&gt;2|&lt;s1&gt;3}}</text>
</g>
<!-- Node0x5ad4c08806a0 -->
<g id="node5" class="node">
<title>Node0x5ad4c08806a0</title>
<polygon fill="none" stroke="black" points="3109.5,-131 2225.5,-131 2225.5,-95 3109.5,-95 3109.5,-131"/>
<text text-anchor="middle" x="2667.5" y="-109.3" font-family="Times,serif" font-size="14.00">{CallGraphNode ID: 3 {fun: _ZN3std3sys9backtrace28__rust_begin_short_backtrace17h3dc47b8c82fb5d34E}|{&lt;s0&gt;4}}</text>
</g>
<!-- Node0x5ad4c080d190&#45;&gt;Node0x5ad4c08806a0 -->
<g id="edge2" class="edge">
<title>Node0x5ad4c080d190:s0&#45;&gt;Node0x5ad4c08806a0</title>
<path fill="none" stroke="black" d="M3021.75,-167.48C2951.89,-156.93 2862.13,-143.38 2790.45,-132.56"/>
<polygon fill="black" stroke="black" points="2790.87,-129.08 2780.46,-131.05 2789.82,-136.01 2790.87,-129.08"/>
</g>
<!-- Node0x5ad4c0880c70 -->
<g id="node6" class="node">
<title>Node0x5ad4c0880c70</title>
<polygon fill="none" stroke="black" points="4077.5,-131 3127.5,-131 3127.5,-95 4077.5,-95 4077.5,-131"/>
<text text-anchor="middle" x="3602.5" y="-109.3" font-family="Times,serif" font-size="14.00">{CallGraphNode ID: 9 {fun: _ZN54_$LT$$LP$$RP$$u20$as$u20$std..process..Termination$GT$6report17h940f4b2e3bad1f2fE}}</text>
</g>
<!-- Node0x5ad4c080d190&#45;&gt;Node0x5ad4c0880c70 -->
<g id="edge3" class="edge">
<title>Node0x5ad4c080d190:s1&#45;&gt;Node0x5ad4c0880c70</title>
<path fill="none" stroke="black" d="M3247.49,-167.48C3317.5,-156.93 3407.45,-143.38 3479.29,-132.56"/>
<polygon fill="black" stroke="black" points="3479.94,-136 3489.3,-131.05 3478.89,-129.08 3479.94,-136"/>
</g>
<!-- Node0x5ad4c0880a70 -->
<g id="node7" class="node">
<title>Node0x5ad4c0880a70</title>
<polygon fill="none" stroke="black" points="3025.5,-59 2309.5,-59 2309.5,-23 3025.5,-23 3025.5,-59"/>
<text text-anchor="middle" x="2667.5" y="-37.3" font-family="Times,serif" font-size="14.00">{CallGraphNode ID: 7 {fun: _ZN4core3ops8function6FnOnce9call_once17h5fe4f693cb04e75dE}}</text>
</g>
<!-- Node0x5ad4c08806a0&#45;&gt;Node0x5ad4c0880a70 -->
<g id="edge4" class="edge">
<title>Node0x5ad4c08806a0:s0&#45;&gt;Node0x5ad4c0880a70</title>
<path fill="none" stroke="black" d="M2667.5,-94.7C2667.5,-86.98 2667.5,-77.71 2667.5,-69.11"/>
<polygon fill="black" stroke="black" points="2671,-69.1 2667.5,-59.1 2664,-69.1 2671,-69.1"/>
</g>
<!-- Node0x5ad4c0880770 -->
<g id="node8" class="node">
<title>Node0x5ad4c0880770</title>
<polygon fill="none" stroke="black" points="1373,-276.5 708,-276.5 708,-240.5 1373,-240.5 1373,-276.5"/>
<text text-anchor="middle" x="1040.5" y="-254.8" font-family="Times,serif" font-size="14.00">{CallGraphNode ID: 4 {fun: _ZN4core3fmt9Arguments6new_v117h6339c7819af387e0E}}</text>
</g>
<!-- Node0x5ad4c0880870 -->
<g id="node9" class="node">
<title>Node0x5ad4c0880870</title>
<polygon fill="none" stroke="black" points="3666.5,-349.5 2602.5,-349.5 2602.5,-313.5 3666.5,-313.5 3666.5,-349.5"/>
<text text-anchor="middle" x="3134.5" y="-327.8" font-family="Times,serif" font-size="14.00">{CallGraphNode ID: 5 {fun: _ZN4core3ops8function6FnOnce40call_once$u7b$$u7b$vtable.shim$u7d$$u7d$17hc16eabb7483eb2caE}|{&lt;s0&gt;5}}</text>
</g>
<!-- Node0x5ad4c0880970 -->
<g id="node10" class="node">
<title>Node0x5ad4c0880970</title>
<polygon fill="none" stroke="black" points="3531,-276.5 2738,-276.5 2738,-240.5 3531,-240.5 3531,-276.5"/>
<text text-anchor="middle" x="3134.5" y="-254.8" font-family="Times,serif" font-size="14.00">{CallGraphNode ID: 6 {fun: _ZN4core3ops8function6FnOnce9call_once17h177b17da1925ebf5E}|{&lt;s0&gt;6}}</text>
</g>
<!-- Node0x5ad4c0880870&#45;&gt;Node0x5ad4c0880970 -->
<g id="edge5" class="edge">
<title>Node0x5ad4c0880870:s0&#45;&gt;Node0x5ad4c0880970</title>
<path fill="none" stroke="black" d="M3134.5,-313.31C3134.5,-305.29 3134.5,-295.55 3134.5,-286.57"/>
<polygon fill="black" stroke="black" points="3138,-286.53 3134.5,-276.53 3131,-286.53 3138,-286.53"/>
</g>
<!-- Node0x5ad4c0880970&#45;&gt;Node0x5ad4c080d190 -->
<g id="edge6" class="edge">
<title>Node0x5ad4c0880970:s0&#45;&gt;Node0x5ad4c080d190</title>
<path fill="none" stroke="black" d="M3134.5,-240.31C3134.5,-232.29 3134.5,-222.55 3134.5,-213.57"/>
<polygon fill="black" stroke="black" points="3138,-213.53 3134.5,-203.53 3131,-213.53 3138,-213.53"/>
</g>
<!-- Node0x5ad4c0880b70 -->
<g id="node11" class="node">
<title>Node0x5ad4c0880b70</title>
<polygon fill="none" stroke="black" points="4904,-349.5 3685,-349.5 3685,-313.5 4904,-313.5 4904,-349.5"/>
<text text-anchor="middle" x="4294.5" y="-327.8" font-family="Times,serif" font-size="14.00">{CallGraphNode ID: 8 {fun: _ZN4core3ptr85drop_in_place$LT$std..rt..lang_start$LT$$LP$$RP$$GT$..$u7b$$u7b$closure$u7d$$u7d$$GT$17he6e541ed319443a1E}}</text>
</g>
<!-- Node0x5ad4c0880d70 -->
<g id="node12" class="node">
<title>Node0x5ad4c0880d70</title>
<polygon fill="none" stroke="black" points="983,-349.5 0,-349.5 0,-313.5 983,-313.5 983,-349.5"/>
<text text-anchor="middle" x="491.5" y="-327.8" font-family="Times,serif" font-size="14.00">{CallGraphNode ID: 10 {fun: _ZN12rust_example4main17h202e05779596d456E}|{&lt;s0&gt;7|&lt;s1&gt;8|&lt;s2&gt;9|&lt;s3&gt;10|&lt;s4&gt;11|&lt;s5&gt;12}}</text>
</g>
<!-- Node0x5ad4c0880d70&#45;&gt;Node0x5ad4c0804b70 -->
<g id="edge7" class="edge">
<title>Node0x5ad4c0880d70:s0&#45;&gt;Node0x5ad4c0804b70</title>
<path fill="none" stroke="black" d="M473.87,-313.31C471.35,-305.29 470.65,-295.55 471.77,-286.57"/>
<polygon fill="black" stroke="black" points="475.24,-287.04 473.92,-276.53 468.4,-285.57 475.24,-287.04"/>
</g>
<!-- Node0x5ad4c0880d70&#45;&gt;Node0x5ad4c0804b70 -->
<g id="edge8" class="edge">
<title>Node0x5ad4c0880d70:s1&#45;&gt;Node0x5ad4c0804b70</title>
<path fill="none" stroke="black" d="M485.62,-313.31C484.78,-305.29 484.55,-295.55 484.92,-286.57"/>
<polygon fill="black" stroke="black" points="488.42,-286.75 485.64,-276.53 481.44,-286.25 488.42,-286.75"/>
</g>
<!-- Node0x5ad4c0880d70&#45;&gt;Node0x5ad4c0804b70 -->
<g id="edge9" class="edge">
<title>Node0x5ad4c0880d70:s2&#45;&gt;Node0x5ad4c0804b70</title>
<path fill="none" stroke="black" d="M497.38,-313.31C498.22,-305.29 498.45,-295.55 498.08,-286.57"/>
<polygon fill="black" stroke="black" points="501.56,-286.25 497.36,-276.53 494.58,-286.75 501.56,-286.25"/>
</g>
<!-- Node0x5ad4c0880d70&#45;&gt;Node0x5ad4c0804b70 -->
<g id="edge10" class="edge">
<title>Node0x5ad4c0880d70:s3&#45;&gt;Node0x5ad4c0804b70</title>
<path fill="none" stroke="black" d="M509.13,-313.31C511.65,-305.29 512.35,-295.55 511.23,-286.57"/>
<polygon fill="black" stroke="black" points="514.6,-285.57 509.08,-276.53 507.76,-287.04 514.6,-285.57"/>
</g>
<!-- Node0x5ad4c0880d70&#45;&gt;Node0x5ad4c0880770 -->
<g id="edge11" class="edge">
<title>Node0x5ad4c0880d70:s4&#45;&gt;Node0x5ad4c0880770</title>
<path fill="none" stroke="black" d="M623,-313.49C706.15,-302.74 813.59,-288.85 898.65,-277.84"/>
<polygon fill="black" stroke="black" points="899.18,-281.31 908.65,-276.55 898.28,-274.36 899.18,-281.31"/>
</g>
<!-- Node0x5ad4c0881470 -->
<g id="node13" class="node">
<title>Node0x5ad4c0881470</title>
<path fill="none" stroke="black" d="M1403,-240.5C1403,-240.5 1956,-240.5 1956,-240.5 1962,-240.5 1968,-246.5 1968,-252.5 1968,-252.5 1968,-264.5 1968,-264.5 1968,-270.5 1962,-276.5 1956,-276.5 1956,-276.5 1403,-276.5 1403,-276.5 1397,-276.5 1391,-270.5 1391,-264.5 1391,-264.5 1391,-252.5 1391,-252.5 1391,-246.5 1397,-240.5 1403,-240.5"/>
<text text-anchor="middle" x="1679.5" y="-254.8" font-family="Times,serif" font-size="14.00">CallGraphNode ID: 17 {fun: _ZN3std2io5stdio6_print17h47fcac1e810b43ceE}</text>
</g>
<!-- Node0x5ad4c0880d70&#45;&gt;Node0x5ad4c0881470 -->
<g id="edge12" class="edge">
<title>Node0x5ad4c0880d70:s5&#45;&gt;Node0x5ad4c0881470</title>
<path fill="none" stroke="black" d="M776.06,-313.49C959.98,-302.5 1198.83,-288.23 1384.75,-277.12"/>
<polygon fill="black" stroke="black" points="1385.18,-280.6 1394.95,-276.51 1384.76,-273.61 1385.18,-280.6"/>
</g>
<!-- Node0x5ad4c0880e70 -->
<g id="node14" class="node">
<title>Node0x5ad4c0880e70</title>
<polygon fill="none" stroke="black" points="2497,-349.5 2134,-349.5 2134,-313.5 2497,-313.5 2497,-349.5"/>
<text text-anchor="middle" x="2315.5" y="-327.8" font-family="Times,serif" font-size="14.00">{CallGraphNode ID: 11 {fun: main}|{&lt;s0&gt;13}}</text>
</g>
<!-- Node0x5ad4c0880e70&#45;&gt;Node0x5ad4c080d090 -->
<g id="edge13" class="edge">
<title>Node0x5ad4c0880e70:s0&#45;&gt;Node0x5ad4c080d090</title>
<path fill="none" stroke="black" d="M2315.5,-313.31C2315.5,-305.29 2315.5,-295.55 2315.5,-286.57"/>
<polygon fill="black" stroke="black" points="2319,-286.53 2315.5,-276.53 2312,-286.53 2319,-286.53"/>
</g>
<!-- Node0x5ad4c0880f70 -->
<g id="node15" class="node">
<title>Node0x5ad4c0880f70</title>
<path fill="none" stroke="black" d="M4933.5,-313.5C4933.5,-313.5 5257.5,-313.5 5257.5,-313.5 5263.5,-313.5 5269.5,-319.5 5269.5,-325.5 5269.5,-325.5 5269.5,-337.5 5269.5,-337.5 5269.5,-343.5 5263.5,-349.5 5257.5,-349.5 5257.5,-349.5 4933.5,-349.5 4933.5,-349.5 4927.5,-349.5 4921.5,-343.5 4921.5,-337.5 4921.5,-337.5 4921.5,-325.5 4921.5,-325.5 4921.5,-319.5 4927.5,-313.5 4933.5,-313.5"/>
<text text-anchor="middle" x="5095.5" y="-327.8" font-family="Times,serif" font-size="14.00">CallGraphNode ID: 12 {fun: llvm.dbg.declare}</text>
</g>
<!-- Node0x5ad4c0881170 -->
<g id="node16" class="node">
<title>Node0x5ad4c0881170</title>
<path fill="none" stroke="black" d="M5300,-313.5C5300,-313.5 6101,-313.5 6101,-313.5 6107,-313.5 6113,-319.5 6113,-325.5 6113,-325.5 6113,-337.5 6113,-337.5 6113,-343.5 6107,-349.5 6101,-349.5 6101,-349.5 5300,-349.5 5300,-349.5 5294,-349.5 5288,-343.5 5288,-337.5 5288,-337.5 5288,-325.5 5288,-325.5 5288,-319.5 5294,-313.5 5300,-313.5"/>
<text text-anchor="middle" x="5700.5" y="-327.8" font-family="Times,serif" font-size="14.00">CallGraphNode ID: 14 {fun: _ZN43_$LT$char$u20$as$u20$core..fmt..Display$GT$3fmt17hedc175efc39a91e3E}</text>
</g>
<!-- Node0x5ad4c0881270 -->
<g id="node17" class="node">
<title>Node0x5ad4c0881270</title>
<path fill="none" stroke="black" d="M6143.5,-313.5C6143.5,-313.5 6513.5,-313.5 6513.5,-313.5 6519.5,-313.5 6525.5,-319.5 6525.5,-325.5 6525.5,-325.5 6525.5,-337.5 6525.5,-337.5 6525.5,-343.5 6519.5,-349.5 6513.5,-349.5 6513.5,-349.5 6143.5,-349.5 6143.5,-349.5 6137.5,-349.5 6131.5,-343.5 6131.5,-337.5 6131.5,-337.5 6131.5,-325.5 6131.5,-325.5 6131.5,-319.5 6137.5,-313.5 6143.5,-313.5"/>
<text text-anchor="middle" x="6328.5" y="-327.8" font-family="Times,serif" font-size="14.00">CallGraphNode ID: 15 {fun: llvm.memcpy.p0.p0.i64}</text>
</g>
<!-- Node0x5ad4c0881370 -->
<g id="node18" class="node">
<title>Node0x5ad4c0881370</title>
<path fill="none" stroke="black" d="M6556,-313.5C6556,-313.5 6901,-313.5 6901,-313.5 6907,-313.5 6913,-319.5 6913,-325.5 6913,-325.5 6913,-337.5 6913,-337.5 6913,-343.5 6907,-349.5 6901,-349.5 6901,-349.5 6556,-349.5 6556,-349.5 6550,-349.5 6544,-343.5 6544,-337.5 6544,-337.5 6544,-325.5 6544,-325.5 6544,-319.5 6550,-313.5 6556,-313.5"/>
<text text-anchor="middle" x="6728.5" y="-327.8" font-family="Times,serif" font-size="14.00">CallGraphNode ID: 16 {fun: rust_eh_personality}</text>
</g>
</g>
</svg>
