<?xml version="1.0" encoding="UTF-8" standalone="no"?>
<!DOCTYPE svg PUBLIC "-//W3C//DTD SVG 1.1//EN"
 "http://www.w3.org/Graphics/SVG/1.1/DTD/svg11.dtd">
<!-- Generated by graphviz version 2.43.0 (0)
 -->
<!-- Title: Call Graph Pages: 1 -->
<svg width="4302pt" height="357pt"
 viewBox="0.00 0.00 4301.50 357.00" xmlns="http://www.w3.org/2000/svg" xmlns:xlink="http://www.w3.org/1999/xlink">
<g id="graph0" class="graph" transform="scale(1 1) rotate(0) translate(4 353)">
<title>Call Graph</title>
<polygon fill="white" stroke="transparent" points="-4,4 -4,-353 4297.5,-353 4297.5,4 -4,4"/>
<text text-anchor="middle" x="2146.75" y="-7.8" font-family="Times,serif" font-size="14.00">Call Graph</text>
<!-- Node0x567bd0cc54a0 -->
<g id="node1" class="node">
<title>Node0x567bd0cc54a0</title>
<polygon fill="none" stroke="black" points="658,-276 0,-276 0,-240 658,-240 658,-276"/>
<text text-anchor="middle" x="329" y="-254.3" font-family="Times,serif" font-size="14.00">{CallGraphNode ID: 0 {fun: _ZN3std2rt10lang_start17heb66d8d650999fa6E}|{&lt;s0&gt;1}}</text>
</g>
<!-- Node0x567bd0cd2560 -->
<g id="node2" class="node">
<title>Node0x567bd0cd2560</title>
<path fill="none" stroke="black" d="M23.5,-167.5C23.5,-167.5 634.5,-167.5 634.5,-167.5 640.5,-167.5 646.5,-173.5 646.5,-179.5 646.5,-179.5 646.5,-191.5 646.5,-191.5 646.5,-197.5 640.5,-203.5 634.5,-203.5 634.5,-203.5 23.5,-203.5 23.5,-203.5 17.5,-203.5 11.5,-197.5 11.5,-191.5 11.5,-191.5 11.5,-179.5 11.5,-179.5 11.5,-173.5 17.5,-167.5 23.5,-167.5"/>
<text text-anchor="middle" x="329" y="-181.8" font-family="Times,serif" font-size="14.00">CallGraphNode ID: 11 {fun: _ZN3std2rt19lang_start_internal17h5e7c81cecd7f0954E}</text>
</g>
<!-- Node0x567bd0cc54a0&#45;&gt;Node0x567bd0cd2560 -->
<g id="edge1" class="edge">
<title>Node0x567bd0cc54a0:s0&#45;&gt;Node0x567bd0cd2560</title>
<path fill="none" stroke="black" d="M329,-239.93C329,-232.17 329,-222.78 329,-214.06"/>
<polygon fill="black" stroke="black" points="332.5,-213.9 329,-203.9 325.5,-213.9 332.5,-213.9"/>
</g>
<!-- Node0x567bd0c5acb0 -->
<g id="node3" class="node">
<title>Node0x567bd0c5acb0</title>
<polygon fill="none" stroke="black" points="1631.5,-203.5 664.5,-203.5 664.5,-167.5 1631.5,-167.5 1631.5,-203.5"/>
<text text-anchor="middle" x="1148" y="-181.8" font-family="Times,serif" font-size="14.00">{CallGraphNode ID: 1 {fun: _ZN3std2rt10lang_start28_$u7b$$u7b$closure$u7d$$u7d$17hfbda0c88a388407bE}|{&lt;s0&gt;2|&lt;s1&gt;3}}</text>
</g>
<!-- Node0x567bd0cd3c70 -->
<g id="node4" class="node">
<title>Node0x567bd0cd3c70</title>
<polygon fill="none" stroke="black" points="1123,-131 239,-131 239,-95 1123,-95 1123,-131"/>
<text text-anchor="middle" x="681" y="-109.3" font-family="Times,serif" font-size="14.00">{CallGraphNode ID: 2 {fun: _ZN3std3sys9backtrace28__rust_begin_short_backtrace17h3dc47b8c82fb5d34E}|{&lt;s0&gt;4}}</text>
</g>
<!-- Node0x567bd0c5acb0&#45;&gt;Node0x567bd0cd3c70 -->
<g id="edge2" class="edge">
<title>Node0x567bd0c5acb0:s0&#45;&gt;Node0x567bd0cd3c70</title>
<path fill="none" stroke="black" d="M1035.25,-167.48C965.39,-156.93 875.63,-143.38 803.95,-132.56"/>
<polygon fill="black" stroke="black" points="804.37,-129.08 793.96,-131.05 803.32,-136.01 804.37,-129.08"/>
</g>
<!-- Node0x567bd0cd4170 -->
<g id="node5" class="node">
<title>Node0x567bd0cd4170</title>
<polygon fill="none" stroke="black" points="2091,-131 1141,-131 1141,-95 2091,-95 2091,-131"/>
<text text-anchor="middle" x="1616" y="-109.3" font-family="Times,serif" font-size="14.00">{CallGraphNode ID: 7 {fun: _ZN54_$LT$$LP$$RP$$u20$as$u20$std..process..Termination$GT$6report17h940f4b2e3bad1f2fE}}</text>
</g>
<!-- Node0x567bd0c5acb0&#45;&gt;Node0x567bd0cd4170 -->
<g id="edge3" class="edge">
<title>Node0x567bd0c5acb0:s1&#45;&gt;Node0x567bd0cd4170</title>
<path fill="none" stroke="black" d="M1260.99,-167.48C1331,-156.93 1420.95,-143.38 1492.79,-132.56"/>
<polygon fill="black" stroke="black" points="1493.44,-136 1502.8,-131.05 1492.39,-129.08 1493.44,-136"/>
</g>
<!-- Node0x567bd0cd3f70 -->
<g id="node6" class="node">
<title>Node0x567bd0cd3f70</title>
<polygon fill="none" stroke="black" points="1039,-59 323,-59 323,-23 1039,-23 1039,-59"/>
<text text-anchor="middle" x="681" y="-37.3" font-family="Times,serif" font-size="14.00">{CallGraphNode ID: 5 {fun: _ZN4core3ops8function6FnOnce9call_once17h5fe4f693cb04e75dE}}</text>
</g>
<!-- Node0x567bd0cd3c70&#45;&gt;Node0x567bd0cd3f70 -->
<g id="edge4" class="edge">
<title>Node0x567bd0cd3c70:s0&#45;&gt;Node0x567bd0cd3f70</title>
<path fill="none" stroke="black" d="M681,-94.7C681,-86.98 681,-77.71 681,-69.11"/>
<polygon fill="black" stroke="black" points="684.5,-69.1 681,-59.1 677.5,-69.1 684.5,-69.1"/>
</g>
<!-- Node0x567bd0cd3d70 -->
<g id="node7" class="node">
<title>Node0x567bd0cd3d70</title>
<polygon fill="none" stroke="black" points="1680,-348.5 616,-348.5 616,-312.5 1680,-312.5 1680,-348.5"/>
<text text-anchor="middle" x="1148" y="-326.8" font-family="Times,serif" font-size="14.00">{CallGraphNode ID: 3 {fun: _ZN4core3ops8function6FnOnce40call_once$u7b$$u7b$vtable.shim$u7d$$u7d$17hc16eabb7483eb2caE}|{&lt;s0&gt;5}}</text>
</g>
<!-- Node0x567bd0cd3e70 -->
<g id="node8" class="node">
<title>Node0x567bd0cd3e70</title>
<polygon fill="none" stroke="black" points="1544.5,-276 751.5,-276 751.5,-240 1544.5,-240 1544.5,-276"/>
<text text-anchor="middle" x="1148" y="-254.3" font-family="Times,serif" font-size="14.00">{CallGraphNode ID: 4 {fun: _ZN4core3ops8function6FnOnce9call_once17h177b17da1925ebf5E}|{&lt;s0&gt;6}}</text>
</g>
<!-- Node0x567bd0cd3d70&#45;&gt;Node0x567bd0cd3e70 -->
<g id="edge5" class="edge">
<title>Node0x567bd0cd3d70:s0&#45;&gt;Node0x567bd0cd3e70</title>
<path fill="none" stroke="black" d="M1148,-312.43C1148,-304.67 1148,-295.28 1148,-286.56"/>
<polygon fill="black" stroke="black" points="1151.5,-286.4 1148,-276.4 1144.5,-286.4 1151.5,-286.4"/>
</g>
<!-- Node0x567bd0cd3e70&#45;&gt;Node0x567bd0c5acb0 -->
<g id="edge6" class="edge">
<title>Node0x567bd0cd3e70:s0&#45;&gt;Node0x567bd0c5acb0</title>
<path fill="none" stroke="black" d="M1148,-239.93C1148,-232.17 1148,-222.78 1148,-214.06"/>
<polygon fill="black" stroke="black" points="1151.5,-213.9 1148,-203.9 1144.5,-213.9 1151.5,-213.9"/>
</g>
<!-- Node0x567bd0cd4070 -->
<g id="node9" class="node">
<title>Node0x567bd0cd4070</title>
<polygon fill="none" stroke="black" points="2917.5,-348.5 1698.5,-348.5 1698.5,-312.5 2917.5,-312.5 2917.5,-348.5"/>
<text text-anchor="middle" x="2308" y="-326.8" font-family="Times,serif" font-size="14.00">{CallGraphNode ID: 6 {fun: _ZN4core3ptr85drop_in_place$LT$std..rt..lang_start$LT$$LP$$RP$$GT$..$u7b$$u7b$closure$u7d$$u7d$$GT$17he6e541ed319443a1E}}</text>
</g>
<!-- Node0x567bd0cd2260 -->
<g id="node10" class="node">
<title>Node0x567bd0cd2260</title>
<polygon fill="none" stroke="black" points="3540.5,-348.5 2935.5,-348.5 2935.5,-312.5 3540.5,-312.5 3540.5,-348.5"/>
<text text-anchor="middle" x="3238" y="-326.8" font-family="Times,serif" font-size="14.00">{CallGraphNode ID: 8 {fun: _ZN12rust_example4main17h202e05779596d456E}}</text>
</g>
<!-- Node0x567bd0cd2360 -->
<g id="node11" class="node">
<title>Node0x567bd0cd2360</title>
<polygon fill="none" stroke="black" points="501.5,-348.5 156.5,-348.5 156.5,-312.5 501.5,-312.5 501.5,-348.5"/>
<text text-anchor="middle" x="329" y="-326.8" font-family="Times,serif" font-size="14.00">{CallGraphNode ID: 9 {fun: main}|{&lt;s0&gt;7}}</text>
</g>
<!-- Node0x567bd0cd2360&#45;&gt;Node0x567bd0cc54a0 -->
<g id="edge7" class="edge">
<title>Node0x567bd0cd2360:s0&#45;&gt;Node0x567bd0cc54a0</title>
<path fill="none" stroke="black" d="M329,-312.43C329,-304.67 329,-295.28 329,-286.56"/>
<polygon fill="black" stroke="black" points="332.5,-286.4 329,-276.4 325.5,-286.4 332.5,-286.4"/>
</g>
<!-- Node0x567bd0cd2460 -->
<g id="node12" class="node">
<title>Node0x567bd0cd2460</title>
<path fill="none" stroke="black" d="M3570,-312.5C3570,-312.5 3894,-312.5 3894,-312.5 3900,-312.5 3906,-318.5 3906,-324.5 3906,-324.5 3906,-336.5 3906,-336.5 3906,-342.5 3900,-348.5 3894,-348.5 3894,-348.5 3570,-348.5 3570,-348.5 3564,-348.5 3558,-342.5 3558,-336.5 3558,-336.5 3558,-324.5 3558,-324.5 3558,-318.5 3564,-312.5 3570,-312.5"/>
<text text-anchor="middle" x="3732" y="-326.8" font-family="Times,serif" font-size="14.00">CallGraphNode ID: 10 {fun: llvm.dbg.declare}</text>
</g>
<!-- Node0x567bd0cd2660 -->
<g id="node13" class="node">
<title>Node0x567bd0cd2660</title>
<path fill="none" stroke="black" d="M3936.5,-312.5C3936.5,-312.5 4281.5,-312.5 4281.5,-312.5 4287.5,-312.5 4293.5,-318.5 4293.5,-324.5 4293.5,-324.5 4293.5,-336.5 4293.5,-336.5 4293.5,-342.5 4287.5,-348.5 4281.5,-348.5 4281.5,-348.5 3936.5,-348.5 3936.5,-348.5 3930.5,-348.5 3924.5,-342.5 3924.5,-336.5 3924.5,-336.5 3924.5,-324.5 3924.5,-324.5 3924.5,-318.5 3930.5,-312.5 3936.5,-312.5"/>
<text text-anchor="middle" x="4109" y="-326.8" font-family="Times,serif" font-size="14.00">CallGraphNode ID: 12 {fun: rust_eh_personality}</text>
</g>
</g>
</svg>
